<!DOCTYPE svg PUBLIC "-//W3C//DTD SVG 1.1//EN" "http://www.w3.org/Graphics/SVG/1.1/DTD/svg11.dtd">
<!-- Uploaded to: SVG Repo, www.svgrepo.com, Transformed by: SVG Repo Mixer Tools -->
<svg width="800px" height="800px" viewBox="0 0 24 24" fill="none" xmlns="http://www.w3.org/2000/svg">
<g id="SVGRepo_bgCarrier" stroke-width="0"/>
<g id="SVGRepo_tracerCarrier" stroke-linecap="round" stroke-linejoin="round"/>
<g id="SVGRepo_iconCarrier"> <path fill-rule="evenodd" clip-rule="evenodd" d="M12 2C6.47715 2 2 6.47715 2 12C2 13.8153 2.48451 15.5196 3.33127 16.9883C3.50372 17.2874 3.5333 17.6516 3.38777 17.9647L2.53406 19.8016C2.00986 20.7933 2.72736 22 3.86159 22H12C17.5228 22 22 17.5228 22 12C22 6.47715 17.5228 2 12 2ZM8.0002 13.3C8.71817 13.3 9.3002 12.7179 9.3002 12C9.3002 11.282 8.71817 10.7 8.0002 10.7C7.28223 10.7 6.7002 11.282 6.7002 12C6.7002 12.7179 7.28223 13.3 8.0002 13.3ZM16.0002 13.3C16.7182 13.3 17.3002 12.7179 17.3002 12C17.3002 11.282 16.7182 10.7 16.0002 10.7C15.2822 10.7 14.7002 11.282 14.7002 12C14.7002 12.7179 15.2822 13.3 16.0002 13.3ZM12.0002 13.3C12.7182 13.3 13.3002 12.7179 13.3002 12C13.3002 11.282 12.7182 10.7 12.0002 10.7C11.2822 10.7 10.7002 11.282 10.7002 12C10.7002 12.7179 11.2822 13.3 12.0002 13.3Z" fill="#000000"/> </g>
</svg>