<!DOCTYPE svg PUBLIC "-//W3C//DTD SVG 1.1//EN" "http://www.w3.org/Graphics/SVG/1.1/DTD/svg11.dtd">
<!-- Uploaded to: SVG Repo, www.svgrepo.com, Transformed by: SVG Repo Mixer Tools -->
<svg width="800px" height="800px" viewBox="0 0 24 24" fill="none" xmlns="http://www.w3.org/2000/svg">
<g id="SVGRepo_bgCarrier" stroke-width="0"/>
<g id="SVGRepo_tracerCarrier" stroke-linecap="round" stroke-linejoin="round"/>
<g id="SVGRepo_iconCarrier"> <path fill-rule="evenodd" clip-rule="evenodd" d="M18.1538 19.4571C18.8619 19.4571 19.4359 18.8815 19.4359 18.1714V16.1143C19.4359 15.6882 19.7803 15.3429 20.2051 15.3429C20.63 15.3429 20.9744 15.6882 20.9744 16.1143V18.1714C20.9744 19.7336 19.7116 21 18.1538 21H16.1026C15.6777 21 15.3333 20.6546 15.3333 20.2286C15.3333 19.8025 15.6777 19.4571 16.1026 19.4571H18.1538Z" fill="#000000"/> <path fill-rule="evenodd" clip-rule="evenodd" d="M18.1538 4.54286C18.8619 4.54286 19.4359 5.11849 19.4359 5.82857V7.88571C19.4359 8.31176 19.7803 8.65714 20.2051 8.65714C20.63 8.65714 20.9744 8.31176 20.9744 7.88571V5.82857C20.9744 4.26639 19.7116 3 18.1538 3L16.1026 3C15.6777 3 15.3333 3.34538 15.3333 3.77143C15.3333 4.19748 15.6777 4.54286 16.1026 4.54286L18.1538 4.54286Z" fill="#000000"/> <path fill-rule="evenodd" clip-rule="evenodd" d="M5.84615 19.4571C5.1381 19.4571 4.5641 18.8815 4.5641 18.1714L4.5641 16.1143C4.5641 15.6882 4.21971 15.3429 3.79487 15.3429C3.37004 15.3429 3.02564 15.6882 3.02564 16.1143L3.02564 18.1714C3.02564 19.7336 4.28843 21 5.84615 21H7.89744C8.32227 21 8.66667 20.6546 8.66667 20.2286C8.66667 19.8025 8.32227 19.4571 7.89744 19.4571H5.84615Z" fill="#000000"/> <path fill-rule="evenodd" clip-rule="evenodd" d="M5.84615 4.54286C5.1381 4.54286 4.5641 5.11849 4.5641 5.82857L4.5641 7.88572C4.5641 8.31176 4.21971 8.65714 3.79487 8.65714C3.37004 8.65714 3.02564 8.31176 3.02564 7.88572L3.02564 5.82857C3.02564 4.2664 4.28843 3 5.84615 3L7.89744 3C8.32227 3 8.66667 3.34538 8.66667 3.77143C8.66667 4.19748 8.32227 4.54286 7.89744 4.54286L5.84615 4.54286Z" fill="#000000"/> <path fill-rule="evenodd" clip-rule="evenodd" d="M22 12C22 12.426 21.6556 12.7714 21.2308 12.7714H2.76923C2.3444 12.7714 2 12.426 2 12C2 11.574 2.3444 11.2286 2.76923 11.2286H21.2308C21.6556 11.2286 22 11.574 22 12Z" fill="#000000"/> </g>
</svg>